<svg id="visual" viewBox="0 0 900 600" width="900" height="600" xmlns="http://www.w3.org/2000/svg" xmlns:xlink="http://www.w3.org/1999/xlink" version="1.1"><rect x="0" y="0" width="900" height="600" fill="#001220"></rect><defs><linearGradient id="grad1_0" x1="33.3%" y1="0%" x2="100%" y2="100%"><stop offset="20%" stop-color="#0066ff" stop-opacity="1"></stop><stop offset="80%" stop-color="#0066ff" stop-opacity="1"></stop></linearGradient></defs><defs><linearGradient id="grad1_1" x1="33.3%" y1="0%" x2="100%" y2="100%"><stop offset="20%" stop-color="#0066ff" stop-opacity="1"></stop><stop offset="80%" stop-color="#0059d1" stop-opacity="1"></stop></linearGradient></defs><defs><linearGradient id="grad1_2" x1="33.3%" y1="0%" x2="100%" y2="100%"><stop offset="20%" stop-color="#0049a3" stop-opacity="1"></stop><stop offset="80%" stop-color="#0059d1" stop-opacity="1"></stop></linearGradient></defs><defs><linearGradient id="grad1_3" x1="33.3%" y1="0%" x2="100%" y2="100%"><stop offset="20%" stop-color="#0049a3" stop-opacity="1"></stop><stop offset="80%" stop-color="#003775" stop-opacity="1"></stop></linearGradient></defs><defs><linearGradient id="grad1_4" x1="33.3%" y1="0%" x2="100%" y2="100%"><stop offset="20%" stop-color="#002548" stop-opacity="1"></stop><stop offset="80%" stop-color="#003775" stop-opacity="1"></stop></linearGradient></defs><defs><linearGradient id="grad1_5" x1="33.3%" y1="0%" x2="100%" y2="100%"><stop offset="20%" stop-color="#002548" stop-opacity="1"></stop><stop offset="80%" stop-color="#001220" stop-opacity="1"></stop></linearGradient></defs><defs><linearGradient id="grad2_0" x1="0%" y1="0%" x2="66.7%" y2="100%"><stop offset="20%" stop-color="#0066ff" stop-opacity="1"></stop><stop offset="80%" stop-color="#0066ff" stop-opacity="1"></stop></linearGradient></defs><defs><linearGradient id="grad2_1" x1="0%" y1="0%" x2="66.7%" y2="100%"><stop offset="20%" stop-color="#0059d1" stop-opacity="1"></stop><stop offset="80%" stop-color="#0066ff" stop-opacity="1"></stop></linearGradient></defs><defs><linearGradient id="grad2_2" x1="0%" y1="0%" x2="66.7%" y2="100%"><stop offset="20%" stop-color="#0059d1" stop-opacity="1"></stop><stop offset="80%" stop-color="#0049a3" stop-opacity="1"></stop></linearGradient></defs><defs><linearGradient id="grad2_3" x1="0%" y1="0%" x2="66.7%" y2="100%"><stop offset="20%" stop-color="#003775" stop-opacity="1"></stop><stop offset="80%" stop-color="#0049a3" stop-opacity="1"></stop></linearGradient></defs><defs><linearGradient id="grad2_4" x1="0%" y1="0%" x2="66.7%" y2="100%"><stop offset="20%" stop-color="#003775" stop-opacity="1"></stop><stop offset="80%" stop-color="#002548" stop-opacity="1"></stop></linearGradient></defs><defs><linearGradient id="grad2_5" x1="0%" y1="0%" x2="66.7%" y2="100%"><stop offset="20%" stop-color="#001220" stop-opacity="1"></stop><stop offset="80%" stop-color="#002548" stop-opacity="1"></stop></linearGradient></defs><g transform="translate(900, 0)"><path d="M0 297.5C-28 285.5 -56 273.4 -86.5 266.3C-117 259.1 -150.1 256.8 -174.8 240.6C-199.6 224.5 -216.2 194.4 -229 166.3C-241.7 138.3 -250.8 112.4 -261.5 85C-272.3 57.6 -284.9 28.8 -297.5 0L0 0Z" fill="#001c33"></path><path d="M0 247.9C-23.3 237.9 -46.7 227.9 -72.1 221.9C-97.5 216 -125 214 -145.7 200.5C-166.4 187 -180.1 162 -190.8 138.6C-201.4 115.3 -209 93.6 -218 70.8C-226.9 48 -237.4 24 -247.9 0L0 0Z" fill="#002e5e"></path><path d="M0 198.3C-18.7 190.3 -37.3 182.3 -57.7 177.5C-78 172.8 -100 171.2 -116.6 160.4C-133.1 149.6 -144.1 129.6 -152.6 110.9C-161.2 92.2 -167.2 74.9 -174.4 56.7C-181.6 38.4 -189.9 19.2 -198.3 0L0 0Z" fill="#00408b"></path><path d="M0 148.7C-14 142.7 -28 136.7 -43.3 133.1C-58.5 129.6 -75 128.4 -87.4 120.3C-99.8 112.2 -108.1 97.2 -114.5 83.2C-120.9 69.2 -125.4 56.2 -130.8 42.5C-136.2 28.8 -142.4 14.4 -148.7 0L0 0Z" fill="#0051ba"></path><path d="M0 99.2C-9.3 95.2 -18.7 91.1 -28.8 88.8C-39 86.4 -50 85.6 -58.3 80.2C-66.5 74.8 -72.1 64.8 -76.3 55.4C-80.6 46.1 -83.6 37.5 -87.2 28.3C-90.8 19.2 -95 9.6 -99.2 0L0 0Z" fill="#0060e8"></path><path d="M0 49.6C-4.7 47.6 -9.3 45.6 -14.4 44.4C-19.5 43.2 -25 42.8 -29.1 40.1C-33.3 37.4 -36 32.4 -38.2 27.7C-40.3 23.1 -41.8 18.7 -43.6 14.2C-45.4 9.6 -47.5 4.8 -49.6 0L0 0Z" fill="#0066ff"></path></g><g transform="translate(0, 600)"><path d="M0 -297.5C29.2 -284.3 58.4 -271.2 83.4 -256.8C108.4 -242.4 129.2 -226.8 155.8 -214.4C182.4 -202 214.8 -192.7 237.9 -172.8C260.9 -152.9 274.5 -122.5 282.9 -91.9C291.3 -61.4 294.4 -30.7 297.5 0L0 0Z" fill="#001c33"></path><path d="M0 -247.9C24.4 -236.9 48.7 -226 69.5 -214C90.3 -202 107.6 -189 129.8 -178.7C152 -168.3 179 -160.6 198.2 -144C217.4 -127.5 228.8 -102.1 235.7 -76.6C242.7 -51.1 245.3 -25.6 247.9 0L0 0Z" fill="#002e5e"></path><path d="M0 -198.3C19.5 -189.5 39 -180.8 55.6 -171.2C72.3 -161.6 86.1 -151.2 103.8 -142.9C121.6 -134.6 143.2 -128.5 158.6 -115.2C173.9 -102 183 -81.7 188.6 -61.3C194.2 -40.9 196.2 -20.5 198.3 0L0 0Z" fill="#00408b"></path><path d="M0 -148.7C14.6 -142.2 29.2 -135.6 41.7 -128.4C54.2 -121.2 64.6 -113.4 77.9 -107.2C91.2 -101 107.4 -96.3 118.9 -86.4C130.4 -76.5 137.3 -61.2 141.4 -46C145.6 -30.7 147.2 -15.3 148.7 0L0 0Z" fill="#0051ba"></path><path d="M0 -99.2C9.7 -94.8 19.5 -90.4 27.8 -85.6C36.1 -80.8 43.1 -75.6 51.9 -71.5C60.8 -67.3 71.6 -64.2 79.3 -57.6C87 -51 91.5 -40.8 94.3 -30.6C97.1 -20.5 98.1 -10.2 99.2 0L0 0Z" fill="#0060e8"></path><path d="M0 -49.6C4.9 -47.4 9.7 -45.2 13.9 -42.8C18.1 -40.4 21.5 -37.8 26 -35.7C30.4 -33.7 35.8 -32.1 39.6 -28.8C43.5 -25.5 45.8 -20.4 47.1 -15.3C48.5 -10.2 49.1 -5.1 49.6 0L0 0Z" fill="#0066ff"></path></g></svg>